<svg width="63" height="63" viewBox="0 0 63 63" fill="none" xmlns="http://www.w3.org/2000/svg">
<mask id="mask0_132_6628" style="mask-type:luminance" maskUnits="userSpaceOnUse" x="0" y="0" width="63" height="63">
<path d="M62.5498 0.400024H0.549805V62.4H62.5498V0.400024Z" fill="white"/>
</mask>
<g mask="url(#mask0_132_6628)">
<path fill-rule="evenodd" clip-rule="evenodd" d="M17.75 36.7001C18.3023 36.7001 18.75 37.1478 18.75 37.7001V38.0001H21.35C21.9023 38.0001 22.35 38.4478 22.35 39.0001C22.35 39.5524 21.9023 40.0001 21.35 40.0001H17.75C17.1977 40.0001 16.75 39.5524 16.75 39.0001V37.7001C16.75 37.1478 17.1977 36.7001 17.75 36.7001Z" fill="#9B9B9B"/>
<path fill-rule="evenodd" clip-rule="evenodd" d="M27.9502 38.8C27.9502 38.2477 28.3979 37.8 28.9502 37.8H35.6502C36.2025 37.8 36.6502 38.2477 36.6502 38.8C36.6502 39.3523 36.2025 39.8 35.6502 39.8H28.9502C28.3979 39.8 27.9502 39.3523 27.9502 38.8Z" fill="#9B9B9B"/>
<path fill-rule="evenodd" clip-rule="evenodd" d="M38.75 37.2001C37.6023 37.2001 36.75 38.0524 36.75 39.2001C36.75 40.2696 37.6238 41.2001 38.75 41.2001C39.8977 41.2001 40.75 40.3478 40.75 39.2001C40.75 38.0739 39.8195 37.2001 38.75 37.2001ZM34.75 39.2001C34.75 36.9478 36.4977 35.2001 38.75 35.2001C40.8805 35.2001 42.75 36.9263 42.75 39.2001C42.75 41.4524 41.0023 43.2001 38.75 43.2001C36.4762 43.2001 34.75 41.3306 34.75 39.2001Z" fill="#9B9B9B"/>
<path fill-rule="evenodd" clip-rule="evenodd" d="M24.9502 37.2001C23.8025 37.2001 22.9502 38.0524 22.9502 39.2001C22.9502 40.2696 23.824 41.2001 24.9502 41.2001C26.0979 41.2001 26.9502 40.3478 26.9502 39.2001C26.9502 38.0524 26.0979 37.2001 24.9502 37.2001ZM20.9502 39.2001C20.9502 36.9478 22.6979 35.2001 24.9502 35.2001C27.2025 35.2001 28.9502 36.9478 28.9502 39.2001C28.9502 41.4524 27.2025 43.2001 24.9502 43.2001C22.6764 43.2001 20.9502 41.3306 20.9502 39.2001Z" fill="#9B9B9B"/>
<path fill-rule="evenodd" clip-rule="evenodd" d="M37.6499 26.5C37.6499 25.9478 38.0976 25.5 38.6499 25.5H42.6499C43.0684 25.5 43.4426 25.7606 43.5878 26.1531L46.2878 33.4531C46.3289 33.5642 46.3499 33.6816 46.3499 33.8V38.8C46.3499 39.3523 45.9022 39.8 45.3499 39.8H41.9499C41.3976 39.8 40.9499 39.3523 40.9499 38.8C40.9499 38.2478 41.3976 37.8 41.9499 37.8H44.3499V33.979L41.9536 27.5H38.6499C38.0976 27.5 37.6499 27.0523 37.6499 26.5Z" fill="#9B9B9B"/>
<path fill-rule="evenodd" clip-rule="evenodd" d="M16.9502 20.6C16.9502 20.0477 17.3979 19.6 17.9502 19.6H35.3502C35.9025 19.6 36.3502 20.0477 36.3502 20.6V34.3C36.3502 34.8523 35.9025 35.3 35.3502 35.3H17.9502C17.3979 35.3 16.9502 34.8523 16.9502 34.3V20.6ZM18.9502 21.6V33.3H34.3502V21.6H18.9502Z" fill="#9B9B9B"/>
<path fill-rule="evenodd" clip-rule="evenodd" d="M31.5498 2.40002C15.5021 2.40002 2.5498 15.3523 2.5498 31.4C2.5498 47.4477 15.5021 60.4 31.5498 60.4C47.5975 60.4 60.5498 47.4477 60.5498 31.4C60.5498 15.3523 47.5975 2.40002 31.5498 2.40002ZM0.549805 31.4C0.549805 14.2477 14.3975 0.400024 31.5498 0.400024C48.7021 0.400024 62.5498 14.2477 62.5498 31.4C62.5498 48.5523 48.7021 62.4 31.5498 62.4C14.3975 62.4 0.549805 48.5523 0.549805 31.4Z" fill="#9B9B9B"/>
</g>
</svg>
