<svg width="63" height="63" viewBox="0 0 63 63" fill="none" xmlns="http://www.w3.org/2000/svg">
<mask id="mask0_132_6590" style="mask-type:luminance" maskUnits="userSpaceOnUse" x="0" y="0" width="63" height="63">
<path d="M62.78 0.400024H0.780029V62.4H62.78V0.400024Z" fill="white"/>
</mask>
<g mask="url(#mask0_132_6590)">
<path d="M31.78 62.4C14.68 62.4 0.780029 48.5 0.780029 31.4C0.780029 14.3 14.68 0.400024 31.78 0.400024C48.88 0.400024 62.78 14.3 62.78 31.4C62.78 48.5 48.88 62.4 31.78 62.4ZM31.78 2.40002C15.78 2.40002 2.78003 15.4 2.78003 31.4C2.78003 47.4 15.78 60.4 31.78 60.4C47.78 60.4 60.78 47.4 60.78 31.4C60.78 15.4 47.78 2.40002 31.78 2.40002Z" fill="#9B9B9B"/>
<path d="M39.58 45.7001H23.98C21.98 45.7001 20.28 44.0001 20.28 42.0001V20.9001C20.28 18.8001 21.98 17.2001 23.98 17.2001H34.78C35.08 17.2001 35.28 17.3001 35.48 17.5001L42.88 25.1001C43.08 25.3001 43.18 25.5001 43.18 25.8001V42.0001C43.28 44.0001 41.58 45.7001 39.58 45.7001ZM23.98 19.1001C23.08 19.1001 22.28 19.9001 22.28 20.8001V41.9001C22.28 42.8001 23.08 43.6001 23.98 43.6001H39.58C40.48 43.6001 41.28 42.8001 41.28 41.9001V26.1001L34.38 19.1001H23.98Z" fill="#9B9B9B"/>
<path d="M41.8798 26.7H34.5798C33.9798 26.7 33.5798 26.3 33.5798 25.7V18.5C33.5798 17.9 33.9798 17.5 34.5798 17.5C35.1798 17.5 35.5798 17.9 35.5798 18.5V24.7H41.8798C42.4798 24.7 42.8798 25.1 42.8798 25.7C42.8798 26.3 42.3798 26.7 41.8798 26.7Z" fill="#9B9B9B"/>
<path d="M38.28 33.3001H25.28C24.68 33.3001 24.28 32.9 24.28 32.3C24.28 31.7 24.68 31.3 25.28 31.3H38.28C38.88 31.3 39.28 31.7 39.28 32.3C39.28 32.9 38.88 33.3001 38.28 33.3001Z" fill="#9B9B9B"/>
<path d="M38.28 38.9H25.28C24.68 38.9 24.28 38.5 24.28 37.9C24.28 37.3 24.68 36.9 25.28 36.9H38.28C38.88 36.9 39.28 37.3 39.28 37.9C39.28 38.5 38.88 38.9 38.28 38.9Z" fill="#9B9B9B"/>
</g>
</svg>
