<svg width="63" height="63" viewBox="0 0 63 63" fill="none" xmlns="http://www.w3.org/2000/svg">
<mask id="mask0_132_6602" style="mask-type:luminance" maskUnits="userSpaceOnUse" x="0" y="0" width="63" height="63">
<path d="M62.52 0.400024H0.52002V62.4H62.52V0.400024Z" fill="white"/>
</mask>
<g mask="url(#mask0_132_6602)">
<path fill-rule="evenodd" clip-rule="evenodd" d="M44.5201 30.8C45.0724 30.8 45.5201 31.2477 45.5201 31.8C45.5201 31.8125 45.5201 31.8251 45.5201 31.8378C45.5203 32.1964 45.5205 32.6706 45.4091 33.1634C44.7335 40.1081 39.1479 45.5 32.2201 45.5C27.7096 45.5 24.0863 43.6523 21.6881 40.0548C21.3817 39.5953 21.5059 38.9744 21.9654 38.6681C22.4249 38.3617 23.0458 38.4858 23.3522 38.9453C25.3539 41.9479 28.3307 43.5 32.2201 43.5C38.0687 43.5 42.8686 38.929 43.4243 32.9081C43.429 32.8573 43.4376 32.807 43.45 32.7575C43.5153 32.496 43.5201 32.2186 43.5201 31.8C43.5201 31.2477 43.9678 30.8 44.5201 30.8Z" fill="#9B9B9B"/>
<path fill-rule="evenodd" clip-rule="evenodd" d="M17.5504 34.2576C17.7839 34.047 18.1028 33.9585 18.4114 34.0186L26.1114 35.5186C26.4836 35.5911 26.7827 35.8678 26.8839 36.2332C26.9851 36.5986 26.871 36.9898 26.5892 37.2434L19.5892 43.5434C19.3077 43.7968 18.9072 43.8694 18.5546 43.7309C18.2021 43.5925 17.9581 43.2668 17.9242 42.8895L17.2242 35.0895C17.1961 34.7764 17.3169 34.4682 17.5504 34.2576ZM19.3351 36.2361L19.7375 40.7192L23.7608 37.0983L19.3351 36.2361Z" fill="#9B9B9B"/>
<path fill-rule="evenodd" clip-rule="evenodd" d="M31.32 19.3C25.4715 19.3 20.6716 23.871 20.1158 29.8919C20.1111 29.9427 20.1025 29.9931 20.0902 30.0426C20.0248 30.3041 20.02 30.5815 20.02 31C20.02 31.5523 19.5723 32 19.02 32C18.4677 32 18.02 31.5523 18.02 31C18.02 30.9876 18.02 30.975 18.02 30.9622C18.0199 30.6038 18.0197 30.1295 18.131 29.6368C18.8067 22.692 24.3923 17.3 31.32 17.3C33.5105 17.3 35.4654 17.6122 37.1877 18.4039C38.9231 19.2017 40.3604 20.4578 41.5521 22.2453C41.8584 22.7049 41.7343 23.3257 41.2747 23.6321C40.8152 23.9384 40.1943 23.8143 39.888 23.3547C38.8796 21.8422 37.7169 20.8484 36.3524 20.2211C34.9747 19.5878 33.3295 19.3 31.32 19.3Z" fill="#9B9B9B"/>
<path fill-rule="evenodd" clip-rule="evenodd" d="M44.0398 18.9526C44.3974 19.0733 44.6566 19.3851 44.71 19.7587L45.81 27.4587C45.8544 27.77 45.7499 28.0841 45.5278 28.3066C45.3056 28.5291 44.9917 28.6342 44.6804 28.5903L36.8804 27.4903C36.5037 27.4372 36.1897 27.1749 36.0704 26.8136C35.9512 26.4524 36.0472 26.0547 36.3183 25.7877L43.0183 19.1877C43.2871 18.9229 43.6822 18.8319 44.0398 18.9526ZM39.1633 25.7925L43.6419 26.4241L43.0103 22.003L39.1633 25.7925Z" fill="#9B9B9B"/>
<path fill-rule="evenodd" clip-rule="evenodd" d="M31.52 2.40002C15.4723 2.40002 2.52002 15.3523 2.52002 31.4C2.52002 47.4477 15.4723 60.4 31.52 60.4C47.5677 60.4 60.52 47.4477 60.52 31.4C60.52 15.3523 47.5677 2.40002 31.52 2.40002ZM0.52002 31.4C0.52002 14.2477 14.3677 0.400024 31.52 0.400024C48.6723 0.400024 62.52 14.2477 62.52 31.4C62.52 48.5523 48.6723 62.4 31.52 62.4C14.3677 62.4 0.52002 48.5523 0.52002 31.4Z" fill="#9B9B9B"/>
</g>
</svg>
