<svg width="63" height="63" viewBox="0 0 63 63" fill="none" xmlns="http://www.w3.org/2000/svg">
<path fill-rule="evenodd" clip-rule="evenodd" d="M31.7598 2.40002C15.7121 2.40002 2.75977 15.3523 2.75977 31.4C2.75977 47.4477 15.7121 60.4 31.7598 60.4C47.8075 60.4 60.7598 47.4477 60.7598 31.4C60.7598 15.3523 47.8075 2.40002 31.7598 2.40002ZM0.759766 31.4C0.759766 14.2477 14.6075 0.400024 31.7598 0.400024C48.9121 0.400024 62.7598 14.2477 62.7598 31.4C62.7598 48.5523 48.9121 62.4 31.7598 62.4C14.6075 62.4 0.759766 48.5523 0.759766 31.4Z" fill="#9B9B9B"/>
<path fill-rule="evenodd" clip-rule="evenodd" d="M22.8599 23C21.7337 23 20.8599 23.9305 20.8599 25V42.7C20.8599 43.8261 21.7904 44.7 22.8599 44.7H40.6599C41.7861 44.7 42.6599 43.7695 42.6599 42.7V25C42.6599 23.8738 41.7294 23 40.6599 23C40.1076 23 39.6599 22.5523 39.6599 22C39.6599 21.4477 40.1076 21 40.6599 21C42.7904 21 44.6599 22.7261 44.6599 25V42.7C44.6599 44.8305 42.9337 46.7 40.6599 46.7H22.8599C20.7294 46.7 18.8599 44.9738 18.8599 42.7V25C18.8599 22.8695 20.5861 21 22.8599 21C23.4122 21 23.8599 21.4477 23.8599 22C23.8599 22.5523 23.4122 23 22.8599 23Z" fill="#9B9B9B"/>
<path fill-rule="evenodd" clip-rule="evenodd" d="M22.5601 40.4C22.5601 39.8477 23.0078 39.4 23.5601 39.4H40.3601C40.9124 39.4 41.3601 39.8477 41.3601 40.4C41.3601 40.9523 40.9124 41.4 40.3601 41.4H23.5601C23.0078 41.4 22.5601 40.9523 22.5601 40.4Z" fill="#9B9B9B"/>
<path fill-rule="evenodd" clip-rule="evenodd" d="M22.0601 20.3C22.0601 19.7477 22.5078 19.3 23.0601 19.3H40.4601C41.0124 19.3 41.4601 19.7477 41.4601 20.3V24.2C41.4601 24.7522 41.0124 25.2 40.4601 25.2H23.0601C22.5078 25.2 22.0601 24.7522 22.0601 24.2V20.3ZM24.0601 21.3V23.2H39.4601V21.3H24.0601Z" fill="#9B9B9B"/>
<path fill-rule="evenodd" clip-rule="evenodd" d="M31.7603 17.2001C30.3938 17.2001 29.2603 18.2709 29.2603 19.7001C29.2603 20.2524 28.8126 20.7001 28.2603 20.7001C27.708 20.7001 27.2603 20.2524 27.2603 19.7001C27.2603 17.1292 29.3268 15.2001 31.7603 15.2001C34.3311 15.2001 36.2603 17.2666 36.2603 19.7001C36.2603 20.2524 35.8126 20.7001 35.2603 20.7001C34.708 20.7001 34.2603 20.2524 34.2603 19.7001C34.2603 18.3336 33.1894 17.2001 31.7603 17.2001Z" fill="#9B9B9B"/>
<path fill-rule="evenodd" clip-rule="evenodd" d="M36.1261 28.5756C36.5814 28.8882 36.6971 29.5107 36.3845 29.966L31.7845 36.666C31.6163 36.911 31.3478 37.0685 31.0518 37.0958C30.7559 37.123 30.4631 37.0172 30.253 36.8071L27.353 33.9071C26.9625 33.5166 26.9625 32.8834 27.353 32.4929C27.7435 32.1023 28.3767 32.1023 28.7672 32.4929L30.8166 34.5422L34.7357 28.834C35.0483 28.3787 35.6708 28.263 36.1261 28.5756Z" fill="#9B9B9B"/>
</svg>
