<svg width="37" height="37" viewBox="0 0 37 37" fill="none" xmlns="http://www.w3.org/2000/svg">
<path d="M27.6454 2.89378C26.1322 2.73366 24.6113 2.65584 23.0897 2.66087C18.0448 2.66087 14.91 5.87318 14.91 11.0456V14.5569H10.6722C10.2582 14.5566 9.92242 14.892 9.92224 15.306V21.0827C9.92197 21.4967 10.2574 21.8325 10.6714 21.8327H14.91V33.4109C14.9098 33.8249 15.2452 34.1606 15.6592 34.1609H21.6263C22.0403 34.1611 22.3761 33.8257 22.3763 33.4117V21.8327H26.601C26.9779 21.8327 27.2963 21.5531 27.3452 21.1794L28.0908 15.4035C28.1443 14.993 27.8549 14.6167 27.4443 14.5632C27.4119 14.559 27.3793 14.5569 27.3466 14.5569H22.3763V11.6184C22.3763 10.1638 22.6693 9.55589 24.4886 9.55589L27.5472 9.55443C27.9612 9.55461 28.297 9.21925 28.2972 8.80525V3.63792C28.2973 3.26146 28.0186 2.94322 27.6454 2.89378ZM26.7972 8.05443L24.4886 8.05589C21.2513 8.05589 20.8763 10.0891 20.8763 11.6184V15.307C20.8762 15.7209 21.2115 16.0567 21.6255 16.0569H26.494L25.9418 20.3327H21.6263C21.2123 20.3326 20.8766 20.6679 20.8763 21.0819V32.6609H16.41V21.0827C16.4103 20.6687 16.0749 20.333 15.6609 20.3327H11.4222V16.0569H15.66C16.074 16.0571 16.4098 15.7217 16.41 15.3077V11.0456C16.41 6.7346 18.9075 4.16087 23.0897 4.16087C24.6029 4.16087 25.9696 4.24291 26.7972 4.31468V8.05443Z" fill="white"/>
</svg>
