<svg width="51" height="50" viewBox="0 0 51 50" fill="none" xmlns="http://www.w3.org/2000/svg">
<path d="M32.5762 27.5512H18.2887C11.5184 27.5512 8.08398 24.1137 8.08398 17.3465C8.08398 7.77774 15.8668 -0.00195312 25.4324 -0.00195312C34.9996 -0.00195312 42.7777 7.7793 42.7777 17.3465C42.7777 27.5512 35.0981 27.5512 32.5762 27.5512ZM25.4324 2.03867C16.9934 2.03867 10.1262 8.90117 10.1262 17.3449C10.1262 24.5809 14.4902 25.5074 18.2887 25.5074H32.5746C36.8137 25.5074 40.7371 24.5199 40.7371 17.3449C40.7387 8.90273 33.8746 2.03867 25.4324 2.03867ZM30.534 49.9996H20.3293C19.7668 49.9996 19.309 49.5418 19.309 48.9793V42.859C19.309 42.2965 19.7668 41.8402 20.3293 41.8402H30.534C31.0965 41.8402 31.5527 42.298 31.5527 42.859V48.9793C31.5527 49.5418 31.0965 49.9996 30.534 49.9996ZM21.3512 47.9605H29.5137V43.8793H21.3512V47.9605ZM35.6371 20.4074C33.948 20.4074 32.5746 19.034 32.5746 17.3465C32.5746 16.784 32.1168 16.3262 31.5543 16.3262C30.9918 16.3262 30.5356 16.784 30.5356 17.3465C30.5356 19.034 29.1621 20.4074 27.473 20.4074C25.7855 20.4074 24.4121 19.034 24.4121 17.3465C24.4121 16.784 23.9543 16.3262 23.3918 16.3262C22.8277 16.3262 22.3715 16.784 22.3715 17.3465C22.3715 19.034 20.998 20.4074 19.309 20.4074C17.6215 20.4074 16.248 19.034 16.248 17.3465C16.248 16.784 15.7902 16.3262 15.2277 16.3262C14.6652 16.3262 14.2074 16.784 14.2074 17.3465C14.2074 19.034 12.834 20.4074 11.1465 20.4074C9.45742 20.4074 8.08398 19.034 8.08398 17.3465H10.123C10.123 17.9074 10.5809 18.3668 11.1434 18.3668C11.7059 18.3668 12.1637 17.9059 12.1637 17.3465C12.1637 15.6574 13.5371 14.284 15.2246 14.284C16.9121 14.284 18.2855 15.6574 18.2855 17.3465C18.2855 17.9074 18.7434 18.3668 19.3059 18.3668C19.8699 18.3668 20.3262 17.9059 20.3262 17.3465C20.3262 15.6574 21.6996 14.284 23.3887 14.284C25.0762 14.284 26.4496 15.6574 26.4496 17.3465C26.4496 17.9074 26.9074 18.3668 27.4699 18.3668C28.0324 18.3668 28.4902 17.9059 28.4902 17.3465C28.4902 15.6574 29.8637 14.284 31.5512 14.284C33.2402 14.284 34.6137 15.6574 34.6137 17.3465C34.6137 17.9074 35.0715 18.3668 35.634 18.3668C36.1965 18.3668 36.6527 17.9059 36.6527 17.3465C36.6527 15.6574 38.0262 14.284 39.7152 14.284C41.4027 14.284 42.7777 15.6574 42.7777 17.3465H40.7371C40.7371 16.784 40.2793 16.3262 39.7184 16.3262C39.1543 16.3262 38.698 16.784 38.698 17.3465C38.698 19.034 37.3246 20.4074 35.6371 20.4074ZM19.4121 43.3074L10.1043 24.3105L11.9371 23.4121L21.2449 42.409L19.4121 43.3074ZM31.448 43.3105L29.6246 42.4027L39.1887 23.1887L41.0121 24.0965L31.448 43.3105ZM22.5809 43.648L20.3496 27.3215L22.373 27.0449L24.6043 43.3715L22.5809 43.648ZM28.4277 42.998L26.4027 42.723L28.6168 26.3918L30.6418 26.6668L28.4277 42.998Z" fill="black"/>
</svg>
