<svg width="51" height="50" viewBox="0 0 51 50" fill="none" xmlns="http://www.w3.org/2000/svg">
<path d="M13.4224 27.0837C9.40412 27.0837 6.14436 20.88 6.14436 16.8252C6.14436 12.8118 9.409 9.5459 13.4224 9.5459C17.4334 9.5459 20.6992 12.8105 20.6992 16.8252C20.6992 20.8752 17.4407 27.0837 13.4224 27.0837ZM13.4224 11.1764C10.3053 11.1764 7.76997 13.713 7.76997 16.8288C7.76997 20.0813 10.4127 25.463 13.4224 25.463C16.4322 25.463 19.0724 20.0813 19.0724 16.8288C19.0724 13.7118 16.537 11.1764 13.4224 11.1764ZM37.8151 27.0837C33.7968 27.0837 30.5322 20.88 30.5322 16.8252C30.5322 12.8118 33.8005 9.5459 37.8151 9.5459C41.8261 9.5459 45.0919 12.8105 45.0919 16.8252C45.0919 20.8752 41.8297 27.0837 37.8151 27.0837ZM37.8151 11.1764C34.6992 11.1764 32.1578 13.713 32.1578 16.8288C32.1578 20.0813 34.8005 25.463 37.8151 25.463C40.8236 25.463 43.4651 20.0813 43.4651 16.8288C43.4651 13.7118 40.9297 11.1764 37.8151 11.1764ZM13.4224 40.452C6.55778 40.452 0.972412 36.5544 0.972412 31.7508C0.972412 28.5057 3.52729 24.1618 7.47973 20.6874C7.81753 20.391 8.33217 20.4252 8.62729 20.7618C8.92485 21.0983 8.89071 21.6118 8.55412 21.9118C4.99314 25.0398 2.59924 28.9935 2.59924 31.7508C2.59924 35.6471 7.45412 38.8239 13.4236 38.8239C14.7175 38.8239 15.5358 38.6544 16.637 38.3947C17.0712 38.2935 17.5114 38.5642 17.6139 39.0008C17.7163 39.4374 17.4444 39.8739 17.0078 39.9813C15.8322 40.2581 14.8895 40.452 13.4224 40.452ZM23.2212 26.9983C22.9431 26.9983 22.6712 26.8557 22.52 26.5983C21.5188 24.902 20.1309 23.5837 18.2809 21.9105C17.948 21.6069 17.9212 21.0922 18.2236 20.7593C18.5261 20.4276 19.0395 20.3996 19.3712 20.7008C21.3285 22.4752 22.8017 23.8752 23.9188 25.7691C24.1468 26.1532 24.02 26.6532 23.6322 26.8849C23.5017 26.9618 23.3602 26.9983 23.2188 26.9983H23.2212ZM27.6053 26.9983C27.4651 26.9983 27.3224 26.9642 27.1919 26.8874C26.8053 26.6544 26.6809 26.1618 26.9053 25.7715C27.8224 24.2166 29.2139 23.0154 30.6846 21.7386C31.0749 21.402 31.4712 21.0593 31.8602 20.7044C32.1919 20.4032 32.7078 20.4276 33.0102 20.7593C33.3127 21.0922 33.287 21.6069 32.9529 21.9069C32.5566 22.2715 32.1492 22.6191 31.7492 22.9654C30.3834 24.1508 29.0907 25.2679 28.3102 26.5898C28.1541 26.8532 27.8846 26.9959 27.6041 26.9959L27.6053 26.9983ZM37.8151 40.4447C36.4749 40.4447 35.1322 40.2837 33.8236 39.9849C33.3883 39.8825 33.1151 39.4447 33.2175 39.0032C33.3212 38.5642 33.7444 38.291 34.1968 38.3983C35.3822 38.6764 36.6017 38.8178 37.82 38.8178C43.787 38.8178 48.6395 35.6508 48.6395 31.7557C48.6395 28.9983 46.2431 25.0422 42.6846 21.9166C42.348 21.6154 42.3127 21.1057 42.6114 20.7666C42.9078 20.43 43.4212 20.3947 43.7566 20.6935C47.7127 24.163 50.2651 28.5081 50.2651 31.7557C50.2651 36.5508 44.6785 40.4447 37.8151 40.4447ZM19.1688 37.5996C16.4797 37.5996 14.2907 35.4337 14.2907 32.7666C14.2907 30.0605 16.3651 27.9361 19.0163 27.9361C20.1249 27.9361 20.8639 28.3264 21.4944 28.7496C21.8663 28.9996 21.9688 29.5057 21.7188 29.8776C21.47 30.2496 20.9627 30.3496 20.5919 30.1057C20.0688 29.7544 19.6639 29.5654 19.0175 29.5654C17.2797 29.5654 15.9188 30.9703 15.9188 32.7703C15.9188 34.5361 17.3773 35.9752 19.1712 35.9752C19.8822 35.9752 20.6102 35.7276 21.17 35.2959C21.5261 35.0227 22.037 35.0898 22.3102 35.4422C22.5834 35.802 22.5188 36.3093 22.1627 36.5825C21.3127 37.2398 20.2505 37.6008 19.1712 37.6008L19.1688 37.5996ZM33.8602 37.5996C32.781 37.5996 31.7188 37.2349 30.8688 36.58C30.5114 36.3069 30.4456 35.7983 30.7188 35.4398C30.9919 35.0874 31.5005 35.0166 31.8566 35.2935C32.4175 35.7276 33.1456 35.9727 33.8553 35.9727C35.6492 35.9727 37.1078 34.5374 37.1078 32.7666C37.1078 30.9715 35.7419 29.5618 34.0102 29.5618C33.3651 29.5618 32.9602 29.752 32.4334 30.102C32.0614 30.3459 31.5541 30.252 31.3066 29.8776C31.059 29.5032 31.1566 28.9996 31.5322 28.7496C32.1651 28.3264 32.9017 27.9361 34.0066 27.9361C36.659 27.9361 38.7297 30.0618 38.7297 32.7666C38.7383 35.4337 36.548 37.5996 33.8602 37.5996ZM31.6029 33.502H21.8468C21.398 33.502 21.0334 33.1349 21.0334 32.6886C21.0334 32.241 21.398 31.8752 21.8468 31.8752H31.6029C32.0505 31.8752 32.4163 32.241 32.4163 32.6886C32.4163 33.1337 32.0505 33.502 31.6029 33.502Z" fill="black"/>
</svg>
