<svg width="51" height="50" viewBox="0 0 51 50" fill="none" xmlns="http://www.w3.org/2000/svg">
<path d="M49.9303 43.7496H2.01313C1.43813 43.7496 0.970947 43.2809 0.970947 42.7074V7.29023C0.970947 6.7168 1.43813 6.24805 2.01313 6.24805H49.9303C50.5038 6.24805 50.9725 6.7168 50.9725 7.29023V42.7074C50.9725 43.2809 50.5038 43.7496 49.9303 43.7496ZM3.05532 41.6668H48.8881V8.33398H3.05532V41.6668ZM48.8897 16.6668H3.05688C2.48188 16.6668 2.0147 16.198 2.0147 15.6246C2.0147 15.0512 2.48188 14.5824 3.05688 14.5824H48.8897C49.4631 14.5824 49.9319 15.0512 49.9319 15.6246C49.9319 16.198 49.4631 16.6668 48.8897 16.6668ZM9.30532 11.4574C9.30532 12.0324 8.83813 12.4996 8.26313 12.4996C7.68813 12.4996 7.22095 12.0324 7.22095 11.4574C7.22095 10.8824 7.68813 10.4152 8.26313 10.4152C8.83813 10.4152 9.30532 10.8824 9.30532 11.4574ZM13.4725 11.4574C13.4725 12.0324 13.0053 12.4996 12.4303 12.4996C11.8553 12.4996 11.3881 12.0324 11.3881 11.4574C11.3881 10.8824 11.8553 10.4152 12.4303 10.4152C13.0053 10.4152 13.4725 10.8824 13.4725 11.4574ZM17.6397 11.4574C17.6397 12.0324 17.1725 12.4996 16.5975 12.4996C16.0225 12.4996 15.5553 12.0324 15.5553 11.4574C15.5553 10.8824 16.0225 10.4152 16.5975 10.4152C17.1725 10.4152 17.6397 10.8824 17.6397 11.4574ZM26.9709 36.4574C26.7397 36.4574 26.5084 36.3809 26.3163 36.2309L21.1522 32.0637C20.7038 31.7012 20.6334 31.0512 20.9959 30.5996C21.3569 30.1512 22.0131 30.0793 22.46 30.4418L26.9725 34.0793L31.4866 30.4418C31.935 30.0793 32.5881 30.1496 32.9506 30.5996C33.3084 31.048 33.2428 31.6996 32.7928 32.0637L27.6288 36.2309C27.435 36.3809 27.2038 36.4574 26.9709 36.4574ZM27.0147 34.3746C26.4397 34.3746 25.9725 33.9059 25.9725 33.3324V22.9152C25.9725 22.3418 26.4397 21.873 27.0147 21.873C27.5881 21.873 28.0569 22.3418 28.0569 22.9152V33.3324C28.0569 33.9059 27.5881 34.3746 27.0147 34.3746Z" fill="black"/>
</svg>
