<svg width="53" height="50" viewBox="0 0 53 50" fill="none" xmlns="http://www.w3.org/2000/svg">
<path d="M51.4323 38.5424C50.8589 38.5424 50.3901 38.0736 50.3901 37.5002C50.3901 24.2893 39.6417 13.5424 26.4323 13.5424C13.2229 13.5424 2.47451 24.2908 2.47451 37.5002C2.47451 38.0736 2.00732 38.5424 1.43232 38.5424C0.857324 38.5424 0.390137 38.0736 0.390137 37.5002C0.390137 23.1393 12.0714 11.458 26.4323 11.458C40.7933 11.458 52.4745 23.1393 52.4745 37.5002C52.4745 38.0736 52.0058 38.5424 51.4323 38.5424ZM45.1823 38.5424C44.6089 38.5424 44.1401 38.0736 44.1401 37.5002C44.1401 27.733 36.1964 19.7924 26.4323 19.7924C16.6683 19.7924 8.72451 27.7361 8.72451 37.5002C8.72451 38.0736 8.25732 38.5424 7.68232 38.5424C7.10732 38.5424 6.64014 38.0736 6.64014 37.5002C6.64014 26.5877 15.5198 17.708 26.4323 17.708C37.3448 17.708 46.2245 26.5877 46.2245 37.5002C46.2245 38.0736 45.7558 38.5424 45.1823 38.5424ZM38.9323 38.5424C38.3589 38.5424 37.8901 38.0736 37.8901 37.5002C37.8901 31.183 32.7511 26.0424 26.4323 26.0424C20.1136 26.0424 14.9745 31.1846 14.9745 37.5002C14.9745 38.0736 14.5073 38.5424 13.9323 38.5424C13.3573 38.5424 12.8901 38.0736 12.8901 37.5002C12.8901 30.033 18.9651 23.958 26.4323 23.958C33.8995 23.958 39.9745 30.033 39.9745 37.5002C39.9745 38.0736 39.5058 38.5424 38.9323 38.5424Z" fill="black"/>
</svg>
