<svg width="51" height="50" viewBox="0 0 51 50" fill="none" xmlns="http://www.w3.org/2000/svg">
<path d="M25.4324 45.8328C13.9449 45.8328 4.59956 36.4875 4.59956 25C4.59956 13.5125 13.9449 4.16719 25.4324 4.16719C36.9199 4.16719 46.2652 13.5125 46.2652 25C46.2652 36.4875 36.9199 45.8328 25.4324 45.8328ZM25.4324 6.25C15.0949 6.25 6.68237 14.6609 6.68237 25C6.68237 35.3391 15.0949 43.75 25.4324 43.75C35.7699 43.75 44.1824 35.3391 44.1824 25C44.1824 14.6609 35.7699 6.25 25.4324 6.25ZM49.3902 26.0422H34.8074C34.2339 26.0422 33.7652 25.5734 33.7652 25C33.7652 24.4266 34.2339 23.9578 34.8074 23.9578H49.3902C49.9636 23.9578 50.4324 24.4266 50.4324 25C50.4324 25.5734 49.9636 26.0422 49.3902 26.0422ZM16.0574 26.0422H1.47456C0.899561 26.0422 0.432373 25.5734 0.432373 25C0.432373 24.4266 0.899561 23.9578 1.47456 23.9578H16.0574C16.6324 23.9578 17.0996 24.4266 17.0996 25C17.0996 25.5734 16.6324 26.0422 16.0574 26.0422ZM25.4324 16.6672C24.8574 16.6672 24.3902 16.1984 24.3902 15.625V1.04219C24.3902 0.46875 24.8574 0 25.4324 0C26.0074 0 26.4746 0.46875 26.4746 1.04219V15.625C26.4746 16.1984 26.0074 16.6672 25.4324 16.6672ZM25.4324 50C24.8574 50 24.3902 49.5312 24.3902 48.9578V34.375C24.3902 33.8016 24.8574 33.3328 25.4324 33.3328C26.0074 33.3328 26.4746 33.8016 26.4746 34.375V48.9578C26.4746 49.5312 26.0074 50 25.4324 50ZM25.4324 39.5828C17.3902 39.5828 10.8496 33.0391 10.8496 25C10.8496 16.9609 17.3917 10.4172 25.4324 10.4172C33.4714 10.4172 40.0152 16.9609 40.0152 25C40.0152 33.0391 33.4714 39.5828 25.4324 39.5828ZM25.4324 12.5C18.5386 12.5 12.9324 18.1062 12.9324 25C12.9324 31.8938 18.5386 37.5 25.4324 37.5C32.3261 37.5 37.9324 31.8938 37.9324 25C37.9324 18.1062 32.3261 12.5 25.4324 12.5ZM25.4324 28.125C23.7089 28.125 22.3074 26.7234 22.3074 25C22.3074 23.2766 23.7089 21.875 25.4324 21.875C27.1558 21.875 28.5574 23.2766 28.5574 25C28.5574 26.7234 27.1558 28.125 25.4324 28.125ZM25.4324 23.9578C24.8574 23.9578 24.3902 24.4266 24.3902 25C24.3902 25.5734 24.8574 26.0422 25.4324 26.0422C26.0074 26.0422 26.4746 25.5734 26.4746 25C26.4746 24.4266 26.0074 23.9578 25.4324 23.9578Z" fill="black"/>
</svg>
